<mxfile host="app.diagrams.net" modified="2022-07-27T11:49:10.789Z" agent="5.0 (Macintosh)" etag="tdfhBsJP2SsI5CAdN2Ky" version="20.1.1" type="github">
  <diagram id="nLpgpVUPIuqNEBCLC_d4" name="Page-1">
    <mxGraphModel dx="902" dy="615" grid="1" gridSize="10" guides="1" tooltips="1" connect="1" arrows="1" fold="1" page="1" pageScale="1" pageWidth="850" pageHeight="1100" math="0" shadow="0">
      <root>
        <mxCell id="0" />
        <mxCell id="1" parent="0" />
        <mxCell id="-FYJMku_H5r-ovS1OdJw-6" value="" style="group" vertex="1" connectable="0" parent="1">
          <mxGeometry x="80" y="150" width="200" height="310" as="geometry" />
        </mxCell>
        <mxCell id="-FYJMku_H5r-ovS1OdJw-2" value="" style="rounded=0;whiteSpace=wrap;html=1;" vertex="1" parent="-FYJMku_H5r-ovS1OdJw-6">
          <mxGeometry y="-60" width="200" height="220" as="geometry" />
        </mxCell>
        <mxCell id="-FYJMku_H5r-ovS1OdJw-3" value="" style="rounded=0;whiteSpace=wrap;html=1;" vertex="1" parent="-FYJMku_H5r-ovS1OdJw-6">
          <mxGeometry y="160" width="200" height="50" as="geometry" />
        </mxCell>
        <mxCell id="-FYJMku_H5r-ovS1OdJw-4" value="" style="rounded=0;whiteSpace=wrap;html=1;" vertex="1" parent="-FYJMku_H5r-ovS1OdJw-6">
          <mxGeometry y="210" width="200" height="50" as="geometry" />
        </mxCell>
        <mxCell id="-FYJMku_H5r-ovS1OdJw-5" value="" style="rounded=0;whiteSpace=wrap;html=1;" vertex="1" parent="-FYJMku_H5r-ovS1OdJw-6">
          <mxGeometry y="260" width="200" height="50" as="geometry" />
        </mxCell>
        <mxCell id="-FYJMku_H5r-ovS1OdJw-18" value="" style="group" vertex="1" connectable="0" parent="-FYJMku_H5r-ovS1OdJw-6">
          <mxGeometry x="9.999999999999993" y="-50" width="180" height="100" as="geometry" />
        </mxCell>
        <mxCell id="-FYJMku_H5r-ovS1OdJw-16" value="&lt;div&gt;&lt;br&gt;&lt;/div&gt;&lt;div&gt;Compare outcome prediction vs outcome estimation from historic data (current)&lt;/div&gt;" style="rounded=1;whiteSpace=wrap;html=1;strokeWidth=1;" vertex="1" parent="-FYJMku_H5r-ovS1OdJw-18">
          <mxGeometry y="20" width="180" height="80" as="geometry" />
        </mxCell>
        <mxCell id="-FYJMku_H5r-ovS1OdJw-7" value="Proof of concept" style="rounded=1;whiteSpace=wrap;html=1;" vertex="1" parent="-FYJMku_H5r-ovS1OdJw-18">
          <mxGeometry width="180" height="40" as="geometry" />
        </mxCell>
        <mxCell id="-FYJMku_H5r-ovS1OdJw-19" value="- apply existing public survival prediction models used for treatment decisions; public data" style="text;html=1;strokeColor=none;fillColor=none;align=left;verticalAlign=middle;whiteSpace=wrap;rounded=0;" vertex="1" parent="-FYJMku_H5r-ovS1OdJw-6">
          <mxGeometry x="15" y="60" width="170" height="60" as="geometry" />
        </mxCell>
        <mxCell id="-FYJMku_H5r-ovS1OdJw-20" value="3m" style="text;html=1;strokeColor=none;fillColor=none;align=left;verticalAlign=middle;whiteSpace=wrap;rounded=0;" vertex="1" parent="-FYJMku_H5r-ovS1OdJw-6">
          <mxGeometry x="15" y="170" width="170" height="30" as="geometry" />
        </mxCell>
        <mxCell id="-FYJMku_H5r-ovS1OdJw-22" value="40k" style="text;html=1;strokeColor=none;fillColor=none;align=left;verticalAlign=middle;whiteSpace=wrap;rounded=0;" vertex="1" parent="-FYJMku_H5r-ovS1OdJw-6">
          <mxGeometry x="15" y="220" width="170" height="30" as="geometry" />
        </mxCell>
        <mxCell id="-FYJMku_H5r-ovS1OdJw-23" value="&lt;div&gt;- postdoc (data sci.) - 1 FTE&lt;br&gt;&lt;/div&gt;&lt;div&gt;- clin. trial expert - advisory&lt;br&gt;&lt;/div&gt;" style="text;html=1;strokeColor=none;fillColor=none;align=left;verticalAlign=middle;whiteSpace=wrap;rounded=0;" vertex="1" parent="-FYJMku_H5r-ovS1OdJw-6">
          <mxGeometry x="15" y="270" width="170" height="30" as="geometry" />
        </mxCell>
        <mxCell id="-FYJMku_H5r-ovS1OdJw-8" value="" style="sketch=0;pointerEvents=1;shadow=0;dashed=0;html=1;strokeColor=none;fillColor=#000000;labelPosition=center;verticalLabelPosition=bottom;verticalAlign=top;outlineConnect=0;align=center;shape=mxgraph.office.concepts.clock;" vertex="1" parent="1">
          <mxGeometry x="30" y="320" width="35" height="35" as="geometry" />
        </mxCell>
        <mxCell id="-FYJMku_H5r-ovS1OdJw-11" value="" style="shape=image;html=1;verticalAlign=top;verticalLabelPosition=bottom;labelBackgroundColor=#ffffff;imageAspect=0;aspect=fixed;image=https://cdn2.iconfinder.com/data/icons/css-vol-1/24/dollar-128.png" vertex="1" parent="1">
          <mxGeometry x="28.5" y="370" width="38" height="38" as="geometry" />
        </mxCell>
        <mxCell id="-FYJMku_H5r-ovS1OdJw-14" value="" style="shape=umlActor;verticalLabelPosition=bottom;verticalAlign=top;html=1;outlineConnect=0;fillColor=#000000;strokeWidth=2;" vertex="1" parent="1">
          <mxGeometry x="41.57" y="420" width="11.87" height="30" as="geometry" />
        </mxCell>
        <mxCell id="-FYJMku_H5r-ovS1OdJw-24" value="" style="group" vertex="1" connectable="0" parent="1">
          <mxGeometry x="310" y="150" width="200" height="310" as="geometry" />
        </mxCell>
        <mxCell id="-FYJMku_H5r-ovS1OdJw-25" value="" style="rounded=0;whiteSpace=wrap;html=1;" vertex="1" parent="-FYJMku_H5r-ovS1OdJw-24">
          <mxGeometry y="-60" width="200" height="220" as="geometry" />
        </mxCell>
        <mxCell id="-FYJMku_H5r-ovS1OdJw-26" value="" style="rounded=0;whiteSpace=wrap;html=1;" vertex="1" parent="-FYJMku_H5r-ovS1OdJw-24">
          <mxGeometry y="160" width="200" height="50" as="geometry" />
        </mxCell>
        <mxCell id="-FYJMku_H5r-ovS1OdJw-27" value="" style="rounded=0;whiteSpace=wrap;html=1;" vertex="1" parent="-FYJMku_H5r-ovS1OdJw-24">
          <mxGeometry y="210" width="200" height="50" as="geometry" />
        </mxCell>
        <mxCell id="-FYJMku_H5r-ovS1OdJw-28" value="" style="rounded=0;whiteSpace=wrap;html=1;" vertex="1" parent="-FYJMku_H5r-ovS1OdJw-24">
          <mxGeometry y="260" width="200" height="50" as="geometry" />
        </mxCell>
        <mxCell id="-FYJMku_H5r-ovS1OdJw-29" value="" style="group" vertex="1" connectable="0" parent="-FYJMku_H5r-ovS1OdJw-24">
          <mxGeometry x="9.999999999999993" y="-50" width="180" height="100" as="geometry" />
        </mxCell>
        <mxCell id="-FYJMku_H5r-ovS1OdJw-30" value="&lt;div&gt;&lt;br&gt;&lt;/div&gt;&lt;div&gt;Compare outcome prediction vs outcome estimation from historic data (current)&lt;/div&gt;" style="rounded=1;whiteSpace=wrap;html=1;strokeWidth=1;" vertex="1" parent="-FYJMku_H5r-ovS1OdJw-29">
          <mxGeometry y="20" width="180" height="80" as="geometry" />
        </mxCell>
        <mxCell id="-FYJMku_H5r-ovS1OdJw-31" value="Data curration" style="rounded=1;whiteSpace=wrap;html=1;" vertex="1" parent="-FYJMku_H5r-ovS1OdJw-29">
          <mxGeometry width="180" height="40" as="geometry" />
        </mxCell>
        <mxCell id="-FYJMku_H5r-ovS1OdJw-32" value="&lt;div&gt;- disease&amp;amp;treatment selection based on Merck&#39;s interests and known population shift effect&lt;/div&gt;&lt;div&gt;- data collection and curation&lt;/div&gt;&lt;div&gt;- selection of features to be modeled&lt;br&gt;&lt;/div&gt;" style="text;html=1;strokeColor=none;fillColor=none;align=left;verticalAlign=middle;whiteSpace=wrap;rounded=0;" vertex="1" parent="-FYJMku_H5r-ovS1OdJw-24">
          <mxGeometry x="15" y="60" width="170" height="90" as="geometry" />
        </mxCell>
        <mxCell id="-FYJMku_H5r-ovS1OdJw-33" value="6m" style="text;html=1;strokeColor=none;fillColor=none;align=left;verticalAlign=middle;whiteSpace=wrap;rounded=0;" vertex="1" parent="-FYJMku_H5r-ovS1OdJw-24">
          <mxGeometry x="15" y="170" width="170" height="30" as="geometry" />
        </mxCell>
        <mxCell id="-FYJMku_H5r-ovS1OdJw-34" value="100k" style="text;html=1;strokeColor=none;fillColor=none;align=left;verticalAlign=middle;whiteSpace=wrap;rounded=0;" vertex="1" parent="-FYJMku_H5r-ovS1OdJw-24">
          <mxGeometry x="15" y="220" width="170" height="30" as="geometry" />
        </mxCell>
        <mxCell id="-FYJMku_H5r-ovS1OdJw-52" value="&lt;div&gt;- postdoc (data sci.) - 1 FTE&lt;br&gt;&lt;/div&gt;&lt;div&gt;- clin. trial internal - 0.25 FTE&lt;br&gt;&lt;/div&gt;" style="text;html=1;strokeColor=none;fillColor=none;align=left;verticalAlign=middle;whiteSpace=wrap;rounded=0;" vertex="1" parent="-FYJMku_H5r-ovS1OdJw-24">
          <mxGeometry x="15" y="270" width="170" height="30" as="geometry" />
        </mxCell>
        <mxCell id="-FYJMku_H5r-ovS1OdJw-37" value="Proceed?" style="rhombus;whiteSpace=wrap;html=1;strokeWidth=1;" vertex="1" parent="1">
          <mxGeometry x="260" y="490" width="80" height="40" as="geometry" />
        </mxCell>
        <mxCell id="-FYJMku_H5r-ovS1OdJw-38" value="" style="endArrow=classic;html=1;rounded=0;exitX=0.5;exitY=1;exitDx=0;exitDy=0;entryX=0;entryY=0.5;entryDx=0;entryDy=0;" edge="1" parent="1" source="-FYJMku_H5r-ovS1OdJw-5" target="-FYJMku_H5r-ovS1OdJw-37">
          <mxGeometry width="50" height="50" relative="1" as="geometry">
            <mxPoint x="430" y="350" as="sourcePoint" />
            <mxPoint x="480" y="300" as="targetPoint" />
          </mxGeometry>
        </mxCell>
        <mxCell id="-FYJMku_H5r-ovS1OdJw-39" value="" style="endArrow=classic;html=1;rounded=0;entryX=0.5;entryY=1;entryDx=0;entryDy=0;" edge="1" parent="1" target="-FYJMku_H5r-ovS1OdJw-28">
          <mxGeometry width="50" height="50" relative="1" as="geometry">
            <mxPoint x="340" y="510" as="sourcePoint" />
            <mxPoint x="390" y="460" as="targetPoint" />
          </mxGeometry>
        </mxCell>
      </root>
    </mxGraphModel>
  </diagram>
</mxfile>
